<svg width="1752" height="1752" viewBox="0 0 1752 1752" fill="none" xmlns="http://www.w3.org/2000/svg">
<circle cx="876" cy="876" r="876" fill="url(#paint0_linear_1003_179)"/>
<g filter="url(#filter0_d_1003_179)">
<circle cx="620" cy="846" r="570" fill="#3294EF"/>
</g>
<g filter="url(#filter1_d_1003_179)">
<circle cx="785" cy="846" r="371" fill="white"/>
</g>
<line x1="1136" y1="928.5" x2="523" y2="928.5" stroke="#3294EF" stroke-width="5"/>
<line x1="754" y1="928.5" x2="434" y2="928.5" stroke="#EF4932" stroke-width="5"/>
<circle cx="753.734" cy="929.966" r="29.9656" transform="rotate(90 753.734 929.966)" fill="#3294EF"/>
<g filter="url(#filter2_d_1003_179)">
<path d="M516.941 662.842H560.594C589.695 662.842 609.373 663.965 619.627 666.211C629.979 668.457 638.377 674.219 644.822 683.496C651.365 692.676 654.637 707.373 654.637 727.588C654.637 746.045 652.342 758.447 647.752 764.795C643.162 771.143 634.129 774.951 620.652 776.221C632.859 779.248 641.062 783.301 645.262 788.379C649.461 793.457 652.049 798.145 653.025 802.441C654.1 806.641 654.637 818.311 654.637 837.451V900H597.361V821.191C597.361 808.496 596.336 800.635 594.285 797.607C592.332 794.58 587.107 793.066 578.611 793.066V900H516.941V662.842ZM578.611 703.418V756.152C585.545 756.152 590.379 755.225 593.113 753.369C595.945 751.416 597.361 745.215 597.361 734.766V721.729C597.361 714.209 595.994 709.277 593.26 706.934C590.623 704.59 585.74 703.418 578.611 703.418ZM785.154 662.842L820.457 900H757.322L754.246 857.373H732.127L728.465 900H664.598L695.945 662.842H785.154ZM752.488 815.332C749.363 788.477 746.238 755.322 743.113 715.869C736.863 761.182 732.957 794.336 731.395 815.332H752.488ZM892.674 662.842V900H831.004V662.842H892.674ZM911.863 615.674L863.67 655.371H833.934L859.715 615.674H911.863ZM1020.55 662.842V710.303L974.559 852.539H1020.55V900H906.883V865.576L954.344 710.303H912.449V662.842H1020.55Z" fill="url(#paint1_radial_1003_179)"/>
</g>
<g filter="url(#filter3_d_1003_179)">
<path d="M810.593 962L749.754 1023.38L810.593 1082" stroke="#DA0B0B" stroke-width="20"/>
<path d="M622.037 962L561.197 1023.38L622.037 1082" stroke="#DA0B0B" stroke-width="20"/>
<path d="M617.394 963.149H554H665.23" stroke="#DA0B0B" stroke-width="20"/>
<path d="M721.888 962L661.049 1023.38L721.888 1082" stroke="#DA0B0B" stroke-width="20"/>
<path d="M662.441 1024.53H716.082" stroke="#DA0B0B" stroke-width="20"/>
<path d="M891.404 962L830.564 1023.38L891.404 1082" stroke="#DA0B0B" stroke-width="20"/>
<path d="M914.16 962L975 1023.38L914.16 1082" stroke="#DA0B0B" stroke-width="20"/>
<path d="M833.119 1021.77H969.892" stroke="#DA0B0B" stroke-width="20"/>
</g>
<g filter="url(#filter4_d_1003_179)">
<circle cx="751" cy="930" r="33" fill="#E52713"/>
<rect x="729.172" y="914.769" width="43.6615" height="30.4615" rx="11" fill="white"/>
<path d="M756.846 925.304C761.469 928.073 761.361 934.808 756.652 937.427L753.252 939.318C748.543 941.937 742.764 938.476 742.85 933.088L742.913 929.198C742.999 923.81 748.886 920.536 753.508 923.305L756.846 925.304Z" fill="#E52713"/>
</g>
<defs>
<filter id="filter0_d_1003_179" x="40" y="266" width="1180" height="1180" filterUnits="userSpaceOnUse" color-interpolation-filters="sRGB">
<feFlood flood-opacity="0" result="BackgroundImageFix"/>
<feColorMatrix in="SourceAlpha" type="matrix" values="0 0 0 0 0 0 0 0 0 0 0 0 0 0 0 0 0 0 127 0" result="hardAlpha"/>
<feMorphology radius="10" operator="dilate" in="SourceAlpha" result="effect1_dropShadow_1003_179"/>
<feOffset dx="10" dy="10"/>
<feGaussianBlur stdDeviation="5"/>
<feComposite in2="hardAlpha" operator="out"/>
<feColorMatrix type="matrix" values="0 0 0 0 0 0 0 0 0 0 0 0 0 0 0 0 0 0 0.25 0"/>
<feBlend mode="normal" in2="BackgroundImageFix" result="effect1_dropShadow_1003_179"/>
<feBlend mode="normal" in="SourceGraphic" in2="effect1_dropShadow_1003_179" result="shape"/>
</filter>
<filter id="filter1_d_1003_179" x="404" y="465" width="782" height="782" filterUnits="userSpaceOnUse" color-interpolation-filters="sRGB">
<feFlood flood-opacity="0" result="BackgroundImageFix"/>
<feColorMatrix in="SourceAlpha" type="matrix" values="0 0 0 0 0 0 0 0 0 0 0 0 0 0 0 0 0 0 127 0" result="hardAlpha"/>
<feMorphology radius="10" operator="dilate" in="SourceAlpha" result="effect1_dropShadow_1003_179"/>
<feOffset dx="10" dy="10"/>
<feGaussianBlur stdDeviation="5"/>
<feComposite in2="hardAlpha" operator="out"/>
<feColorMatrix type="matrix" values="0 0 0 0 0 0 0 0 0 0 0 0 0 0 0 0 0 0 0.25 0"/>
<feBlend mode="normal" in2="BackgroundImageFix" result="effect1_dropShadow_1003_179"/>
<feBlend mode="normal" in="SourceGraphic" in2="effect1_dropShadow_1003_179" result="shape"/>
</filter>
<filter id="filter2_d_1003_179" x="502.941" y="603.674" width="535.613" height="316.326" filterUnits="userSpaceOnUse" color-interpolation-filters="sRGB">
<feFlood flood-opacity="0" result="BackgroundImageFix"/>
<feColorMatrix in="SourceAlpha" type="matrix" values="0 0 0 0 0 0 0 0 0 0 0 0 0 0 0 0 0 0 127 0" result="hardAlpha"/>
<feOffset dx="2" dy="4"/>
<feGaussianBlur stdDeviation="8"/>
<feComposite in2="hardAlpha" operator="out"/>
<feColorMatrix type="matrix" values="0 0 0 0 0 0 0 0 0 0 0 0 0 0 0 0 0 0 0.5 0"/>
<feBlend mode="normal" in2="BackgroundImageFix" result="effect1_dropShadow_1003_179"/>
<feBlend mode="normal" in="SourceGraphic" in2="effect1_dropShadow_1003_179" result="shape"/>
</filter>
<filter id="filter3_d_1003_179" x="532.955" y="941.149" width="474.287" height="168.052" filterUnits="userSpaceOnUse" color-interpolation-filters="sRGB">
<feFlood flood-opacity="0" result="BackgroundImageFix"/>
<feColorMatrix in="SourceAlpha" type="matrix" values="0 0 0 0 0 0 0 0 0 0 0 0 0 0 0 0 0 0 127 0" result="hardAlpha"/>
<feOffset dx="2" dy="4"/>
<feGaussianBlur stdDeviation="8"/>
<feComposite in2="hardAlpha" operator="out"/>
<feColorMatrix type="matrix" values="0 0 0 0 0 0 0 0 0 0 0 0 0 0 0 0 0 0 0.25 0"/>
<feBlend mode="normal" in2="BackgroundImageFix" result="effect1_dropShadow_1003_179"/>
<feBlend mode="normal" in="SourceGraphic" in2="effect1_dropShadow_1003_179" result="shape"/>
</filter>
<filter id="filter4_d_1003_179" x="718" y="897" width="74" height="74" filterUnits="userSpaceOnUse" color-interpolation-filters="sRGB">
<feFlood flood-opacity="0" result="BackgroundImageFix"/>
<feColorMatrix in="SourceAlpha" type="matrix" values="0 0 0 0 0 0 0 0 0 0 0 0 0 0 0 0 0 0 127 0" result="hardAlpha"/>
<feOffset dx="4" dy="4"/>
<feGaussianBlur stdDeviation="2"/>
<feComposite in2="hardAlpha" operator="out"/>
<feColorMatrix type="matrix" values="0 0 0 0 0 0 0 0 0 0 0 0 0 0 0 0 0 0 0.25 0"/>
<feBlend mode="normal" in2="BackgroundImageFix" result="effect1_dropShadow_1003_179"/>
<feBlend mode="normal" in="SourceGraphic" in2="effect1_dropShadow_1003_179" result="shape"/>
</filter>
<linearGradient id="paint0_linear_1003_179" x1="1884" y1="3.08409e-05" x2="100" y2="1832" gradientUnits="userSpaceOnUse">
<stop offset="0.028479" stop-color="#3294EF"/>
<stop offset="0.813484" stop-color="#7384B1" stop-opacity="0"/>
</linearGradient>
<radialGradient id="paint1_radial_1003_179" cx="0" cy="0" r="1" gradientUnits="userSpaceOnUse" gradientTransform="translate(742.373 705.977) rotate(89.3228) scale(365.658 863.435)">
<stop offset="0.244792" stop-color="white"/>
<stop offset="0.578125" stop-color="#3294EF"/>
</radialGradient>
</defs>
</svg>
